<svg width="18" height="18" viewBox="0 0 18 18" fill="none" xmlns="http://www.w3.org/2000/svg">
<path d="M14.1846 12.249C15.1804 10.9987 15.79 9.44074 15.79 7.74811C15.79 3.63195 12.2337 0.285156 7.88484 0.285156C3.53599 0.285156 0 3.63195 0 7.74811C0 11.8643 3.53599 15.2111 7.88484 15.2111C9.51058 15.2111 11.0347 14.7302 12.2947 13.9224C12.315 13.9416 12.315 13.9416 12.3353 13.9608L15.79 17.2307C16.0339 17.4615 16.3793 17.5961 16.7045 17.5961C17.0296 17.5961 17.3751 17.4807 17.619 17.2307C18.127 16.7498 18.127 15.9804 17.619 15.4996L14.1846 12.249ZM7.88484 12.7683C4.95851 12.7683 2.58086 10.5179 2.58086 7.74811C2.58086 4.97836 4.95851 2.72793 7.88484 2.72793C10.8112 2.72793 13.1888 4.97836 13.1888 7.74811C13.1888 10.5179 10.8112 12.7683 7.88484 12.7683Z" fill="white"/>
</svg>
