<svg width="79" height="6" viewBox="0 0 79 6" fill="none" xmlns="http://www.w3.org/2000/svg">
<path d="M1.975 4C7.79394 4 10.2338 2.9912 12.8182 1.92385C15.1057 0.97755 17.4703 0 21.725 0C26.2092 0 28.6587 1.10935 30.8189 2.0879C33.0851 3.11425 35.0408 4 39.5 4C43.9592 4 45.9149 3.11425 48.1811 2.0879C50.3413 1.10935 52.7908 0 57.275 0C61.5297 0 63.8943 0.97755 66.1818 1.92385C68.7662 2.9912 71.2061 4 77.025 4C77.5488 4 78.0512 4.10536 78.4215 4.29289C78.7919 4.48043 79 4.73478 79 5C79 5.26522 78.7919 5.51957 78.4215 5.70711C78.0512 5.89464 77.5488 6 77.025 6C69.7981 6 66.4074 4.59865 63.6839 3.47265C61.6165 2.61815 60.1218 2 57.275 2C54.299 2 52.7621 2.6963 50.8138 3.5781C48.4318 4.65725 45.4675 6 39.5 6C33.5325 6 30.5682 4.65725 28.1862 3.5781C26.2379 2.6963 24.701 2 21.725 2C18.8782 2 17.3835 2.61815 15.3161 3.47265C12.5926 4.59865 9.20192 6 1.975 6C1.4512 6 0.948849 5.89464 0.578465 5.70711C0.20808 5.51957 0 5.26522 0 5C0 4.73478 0.20808 4.48043 0.578465 4.29289C0.948849 4.10536 1.4512 4 1.975 4Z" fill="white"/>
</svg>
